#tb 0: 1/1000
0,          0,          0,        0,      384, f92a7777fd69aa2f2914d9a41c4828ba
0,         33,         33,        0,      384, 62e1cc73487d2249a88a60e35a22d9c7
0,         66,         66,        0,      384, aa2619b605cb65eda15fdd99d5775550
0,        100,        100,        0,      384, e6f0a491c543b835d0cefe5ca62c3dbe
0,        133,        133,        0,      384, 361be1a06913c398f09494ca1b2d288f
0,        166,        166,        0,      384, 0497bf849a973357c0ccb8d43f5bd8b4
0,        200,        200,        0,      384, 5ac6ac523147c409dd00820622161dd7
0,        233,        233,        0,      384, 7d07245574a46c524360f09be29a5f19
0,        266,        266,        0,      384, fcfa7fbcaf42f81e4e34a4ee5a029ca1
0,        300,        300,        0,      384, 336e3fe4f15d3d6c82d82b1855dcfeb4
